# xmcd CD database file
#
# Track frame offsets:
#	183
#	19008
#	34858
#	51333
#	69720
#	88308
#	103008
#	123495
#	140808
#	162033
#	175470
#	190758
#	207158
#	223283
#	240220
#
# Disc length: 3502 seconds
#
# Revision: 1
# Processed by: cddbd v1.5.2PL0 Copyright (c) Steve Scherf et al.
# Submitted via: CDex 1.51
#
DISCID=df0dac0f
DTITLE=Various Artist - Top Pop 91 vol. 2 - מסיבת קיץ
DYEAR=1991
DGENRE=90's
TTITLE0=Nomad - (I Wanna Give You) Devotion (feat. MC Mikee Freedom)
TTITLE1=Kylie Minogue - What Do I Have to Do? (7" Mix)
TTITLE2=Lonnie Gordon - Gonna Catch You (Radio Mix)
TTITLE3=Quartz - It's Too Late (Introducing Dina Carrol)
TTITLE4=Cathy Dennis - (All Night Long) Touch Me
TTITLE5=Bananarama - Preacher Man (7" Mix)
TTITLE6=Banderas - This Is Your Life (Original Mix)
TTITLE7=Santa Esmeralda - Don't Let Me Be Misunderstood (Remix '90 - Radio Edit PWL)
TTITLE8=Jive Bunny and the Mastermixers - Over To You John (Here We Go Again)
TTITLE9=Pat and Mick - Gimme Some (7" Version)
TTITLE10=Rhyme Design - Believe the Hype
TTITLE11=Love Inc. - Love is the Message (feat. MC Noise)
TTITLE12=Gregorian - So Sad (Radio Version)
TTITLE13=Frankie Valli - Grease The Dream Mix (7" Version) (with John Travolta and Olivia Newton-John)
TTITLE14=Stevie B - Because I Love You (The Postman Song) (Album Version)
EXTD=YEAR: 1991
EXTT0=
EXTT1=
EXTT2=
EXTT3=
EXTT4=
EXTT5=
EXTT6=
EXTT7=
EXTT8=
EXTT9=
EXTT10=
EXTT11=
EXTT12=
EXTT13=
EXTT14=
PLAYORDER=
